<svg width="201" height="201" viewBox="0 0 201 201" fill="none" xmlns="http://www.w3.org/2000/svg">
<g filter="url(#filter0_i_287_277)">
<path d="M100.5 171.333L146.333 196.333L192.167 171.333V113L146.333 142.167L100.5 113V171.333Z" fill="white" fill-opacity="0.02"/>
<path d="M100.5 171.333L146.333 196.333L192.167 171.333V113L146.333 142.167L100.5 113V171.333Z" fill="url(#paint0_linear_287_277)" fill-opacity="0.2"/>
<path d="M8.83337 113L54.6667 87.9998L100.5 113L54.6667 142.167V196.333L8.83337 171.333V113Z" fill="white" fill-opacity="0.02"/>
<path d="M8.83337 113L54.6667 87.9998L100.5 113L54.6667 142.167V196.333L8.83337 171.333V113Z" fill="url(#paint1_linear_287_277)" fill-opacity="0.2"/>
<path d="M146.333 87.9998L100.5 113V58.8332L54.6667 29.6665L100.5 4.6665L146.333 29.6665V87.9998Z" fill="white" fill-opacity="0.02"/>
<path d="M146.333 87.9998L100.5 113V58.8332L54.6667 29.6665L100.5 4.6665L146.333 29.6665V87.9998Z" fill="url(#paint2_linear_287_277)" fill-opacity="0.2"/>
</g>
<defs>
<filter id="filter0_i_287_277" x="8.83337" y="4.6665" width="183.333" height="191.667" filterUnits="userSpaceOnUse" color-interpolation-filters="sRGB">
<feFlood flood-opacity="0" result="BackgroundImageFix"/>
<feBlend mode="normal" in="SourceGraphic" in2="BackgroundImageFix" result="shape"/>
<feColorMatrix in="SourceAlpha" type="matrix" values="0 0 0 0 0 0 0 0 0 0 0 0 0 0 0 0 0 0 127 0" result="hardAlpha"/>
<feOffset/>
<feGaussianBlur stdDeviation="6"/>
<feComposite in2="hardAlpha" operator="arithmetic" k2="-1" k3="1"/>
<feColorMatrix type="matrix" values="0 0 0 0 1 0 0 0 0 1 0 0 0 0 1 0 0 0 0.2 0"/>
<feBlend mode="normal" in2="shape" result="effect1_innerShadow_287_277"/>
</filter>
<linearGradient id="paint0_linear_287_277" x1="100.5" y1="-87.5" x2="100.5" y2="196.333" gradientUnits="userSpaceOnUse">
<stop stop-color="white"/>
<stop offset="0.773658" stop-color="white" stop-opacity="0"/>
</linearGradient>
<linearGradient id="paint1_linear_287_277" x1="100.5" y1="-87.5" x2="100.5" y2="196.333" gradientUnits="userSpaceOnUse">
<stop stop-color="white"/>
<stop offset="0.773658" stop-color="white" stop-opacity="0"/>
</linearGradient>
<linearGradient id="paint2_linear_287_277" x1="100.5" y1="-87.5" x2="100.5" y2="196.333" gradientUnits="userSpaceOnUse">
<stop stop-color="white"/>
<stop offset="0.773658" stop-color="white" stop-opacity="0"/>
</linearGradient>
</defs>
</svg>
