<svg width="201" height="201" viewBox="0 0 201 201" fill="none" xmlns="http://www.w3.org/2000/svg">
<g filter="url(#filter0_i_287_238)">
<path d="M100.5 100.5H142.167L183.833 58.8334V17.1667H142.167L100.5 58.8334V100.5Z" fill="white" fill-opacity="0.02"/>
<path d="M100.5 100.5H142.167L183.833 58.8334V17.1667H142.167L100.5 58.8334V100.5Z" fill="url(#paint0_linear_287_238)" fill-opacity="0.2"/>
<path d="M100.5 183.833H142.167L183.833 142.167V100.5H142.167L100.5 142.167V183.833Z" fill="white" fill-opacity="0.02"/>
<path d="M100.5 183.833H142.167L183.833 142.167V100.5H142.167L100.5 142.167V183.833Z" fill="url(#paint1_linear_287_238)" fill-opacity="0.2"/>
<path d="M17.1666 183.833H58.8333L100.5 142.167V100.5H58.8333L17.1666 142.167V183.833Z" fill="white" fill-opacity="0.02"/>
<path d="M17.1666 183.833H58.8333L100.5 142.167V100.5H58.8333L17.1666 142.167V183.833Z" fill="url(#paint2_linear_287_238)" fill-opacity="0.2"/>
<path d="M17.1666 100.5H58.8333L100.5 58.8334V17.1667H58.8333L17.1666 58.8334V100.5Z" fill="white" fill-opacity="0.02"/>
<path d="M17.1666 100.5H58.8333L100.5 58.8334V17.1667H58.8333L17.1666 58.8334V100.5Z" fill="url(#paint3_linear_287_238)" fill-opacity="0.2"/>
</g>
<defs>
<filter id="filter0_i_287_238" x="17.1666" y="17.1667" width="166.667" height="166.667" filterUnits="userSpaceOnUse" color-interpolation-filters="sRGB">
<feFlood flood-opacity="0" result="BackgroundImageFix"/>
<feBlend mode="normal" in="SourceGraphic" in2="BackgroundImageFix" result="shape"/>
<feColorMatrix in="SourceAlpha" type="matrix" values="0 0 0 0 0 0 0 0 0 0 0 0 0 0 0 0 0 0 127 0" result="hardAlpha"/>
<feOffset/>
<feGaussianBlur stdDeviation="6"/>
<feComposite in2="hardAlpha" operator="arithmetic" k2="-1" k3="1"/>
<feColorMatrix type="matrix" values="0 0 0 0 1 0 0 0 0 1 0 0 0 0 1 0 0 0 0.2 0"/>
<feBlend mode="normal" in2="shape" result="effect1_innerShadow_287_238"/>
</filter>
<linearGradient id="paint0_linear_287_238" x1="100.5" y1="-62.978" x2="100.5" y2="183.833" gradientUnits="userSpaceOnUse">
<stop stop-color="white"/>
<stop offset="0.773658" stop-color="white" stop-opacity="0"/>
</linearGradient>
<linearGradient id="paint1_linear_287_238" x1="100.5" y1="-62.978" x2="100.5" y2="183.833" gradientUnits="userSpaceOnUse">
<stop stop-color="white"/>
<stop offset="0.773658" stop-color="white" stop-opacity="0"/>
</linearGradient>
<linearGradient id="paint2_linear_287_238" x1="100.5" y1="-62.978" x2="100.5" y2="183.833" gradientUnits="userSpaceOnUse">
<stop stop-color="white"/>
<stop offset="0.773658" stop-color="white" stop-opacity="0"/>
</linearGradient>
<linearGradient id="paint3_linear_287_238" x1="100.5" y1="-62.978" x2="100.5" y2="183.833" gradientUnits="userSpaceOnUse">
<stop stop-color="white"/>
<stop offset="0.773658" stop-color="white" stop-opacity="0"/>
</linearGradient>
</defs>
</svg>
