<svg width="201" height="201" viewBox="0 0 201 201" fill="none" xmlns="http://www.w3.org/2000/svg">
<g filter="url(#filter0_i_287_258)">
<path d="M100.5 42.1667L117.167 71.3333H150.5L167.167 42.1667H133.833L117.167 13L100.5 42.1667Z" fill="white" fill-opacity="0.02"/>
<path d="M100.5 42.1667L117.167 71.3333H150.5L167.167 42.1667H133.833L117.167 13L100.5 42.1667Z" fill="url(#paint0_linear_287_258)" fill-opacity="0.2"/>
<path d="M150.5 129.667L133.833 100.5L150.5 71.3333H183.833L167.167 100.5L183.833 129.667H150.5Z" fill="white" fill-opacity="0.02"/>
<path d="M150.5 129.667L133.833 100.5L150.5 71.3333H183.833L167.167 100.5L183.833 129.667H150.5Z" fill="url(#paint1_linear_287_258)" fill-opacity="0.2"/>
<path d="M100.5 158.833L117.167 129.667H150.5L167.167 158.833H133.833L117.167 188L100.5 158.833Z" fill="white" fill-opacity="0.02"/>
<path d="M100.5 158.833L117.167 129.667H150.5L167.167 158.833H133.833L117.167 188L100.5 158.833Z" fill="url(#paint2_linear_287_258)" fill-opacity="0.2"/>
<path d="M100.5 158.833L83.8334 129.667H50.5001L33.8334 158.833H67.1668L83.8334 188L100.5 158.833Z" fill="white" fill-opacity="0.02"/>
<path d="M100.5 158.833L83.8334 129.667H50.5001L33.8334 158.833H67.1668L83.8334 188L100.5 158.833Z" fill="url(#paint3_linear_287_258)" fill-opacity="0.2"/>
<path d="M50.5001 129.667L67.1668 100.5L50.5001 71.3333H17.1667L33.8334 100.5L17.1667 129.667H50.5001Z" fill="white" fill-opacity="0.02"/>
<path d="M50.5001 129.667L67.1668 100.5L50.5001 71.3333H17.1667L33.8334 100.5L17.1667 129.667H50.5001Z" fill="url(#paint4_linear_287_258)" fill-opacity="0.2"/>
<path d="M100.5 42.1667L83.8334 71.3333H50.5001L33.8334 42.1667H67.1668L83.8334 13L100.5 42.1667Z" fill="white" fill-opacity="0.02"/>
<path d="M100.5 42.1667L83.8334 71.3333H50.5001L33.8334 42.1667H67.1668L83.8334 13L100.5 42.1667Z" fill="url(#paint5_linear_287_258)" fill-opacity="0.2"/>
</g>
<defs>
<filter id="filter0_i_287_258" x="17.1667" y="13" width="166.667" height="175" filterUnits="userSpaceOnUse" color-interpolation-filters="sRGB">
<feFlood flood-opacity="0" result="BackgroundImageFix"/>
<feBlend mode="normal" in="SourceGraphic" in2="BackgroundImageFix" result="shape"/>
<feColorMatrix in="SourceAlpha" type="matrix" values="0 0 0 0 0 0 0 0 0 0 0 0 0 0 0 0 0 0 127 0" result="hardAlpha"/>
<feOffset/>
<feGaussianBlur stdDeviation="6"/>
<feComposite in2="hardAlpha" operator="arithmetic" k2="-1" k3="1"/>
<feColorMatrix type="matrix" values="0 0 0 0 1 0 0 0 0 1 0 0 0 0 1 0 0 0 0.2 0"/>
<feBlend mode="normal" in2="shape" result="effect1_innerShadow_287_258"/>
</filter>
<linearGradient id="paint0_linear_287_258" x1="100.5" y1="-71.152" x2="100.5" y2="188" gradientUnits="userSpaceOnUse">
<stop stop-color="white"/>
<stop offset="0.773658" stop-color="white" stop-opacity="0"/>
</linearGradient>
<linearGradient id="paint1_linear_287_258" x1="100.5" y1="-71.152" x2="100.5" y2="188" gradientUnits="userSpaceOnUse">
<stop stop-color="white"/>
<stop offset="0.773658" stop-color="white" stop-opacity="0"/>
</linearGradient>
<linearGradient id="paint2_linear_287_258" x1="100.5" y1="-71.152" x2="100.5" y2="188" gradientUnits="userSpaceOnUse">
<stop stop-color="white"/>
<stop offset="0.773658" stop-color="white" stop-opacity="0"/>
</linearGradient>
<linearGradient id="paint3_linear_287_258" x1="100.5" y1="-71.152" x2="100.5" y2="188" gradientUnits="userSpaceOnUse">
<stop stop-color="white"/>
<stop offset="0.773658" stop-color="white" stop-opacity="0"/>
</linearGradient>
<linearGradient id="paint4_linear_287_258" x1="100.5" y1="-71.152" x2="100.5" y2="188" gradientUnits="userSpaceOnUse">
<stop stop-color="white"/>
<stop offset="0.773658" stop-color="white" stop-opacity="0"/>
</linearGradient>
<linearGradient id="paint5_linear_287_258" x1="100.5" y1="-71.152" x2="100.5" y2="188" gradientUnits="userSpaceOnUse">
<stop stop-color="white"/>
<stop offset="0.773658" stop-color="white" stop-opacity="0"/>
</linearGradient>
</defs>
</svg>
