<svg width="24" height="24" viewBox="0 0 24 24" fill="none" xmlns="http://www.w3.org/2000/svg">
<g clip-path="url(#clip0_287_596)">
<path d="M0.131897 1.83022C0.131897 0.89238 0.916414 0.131836 1.88402 0.131836H22.0891C23.0568 0.131836 23.8413 0.89238 23.8413 1.83022V22.1428C23.8413 23.0809 23.0568 23.8412 22.0891 23.8412H1.88402C0.916414 23.8412 0.131897 23.0809 0.131897 22.1428V1.83022Z" fill="white"/>
<path d="M5.52843 7.81176C6.77713 7.81176 7.55453 6.98957 7.55453 5.96216C7.53135 4.91157 6.77739 4.1123 5.55214 4.1123C4.32716 4.1123 3.52631 4.91157 3.52631 5.96216C3.52631 6.98957 4.30345 7.81176 5.50525 7.81176H5.52843Z" fill="#0F0F0F"/>
<path d="M7.31902 19.9786V9.27246H3.73785V19.9786H7.31902Z" fill="#0F0F0F"/>
<path d="M9.3006 19.9786H12.8818V13.9999C12.8818 13.6799 12.905 13.3603 12.9995 13.1316C13.2585 12.4923 13.8475 11.8303 14.837 11.8303C16.1328 11.8303 16.6513 12.8121 16.6513 14.2512V19.9786H20.2319V13.84C20.2319 10.5515 18.4653 9.02148 16.1091 9.02148C14.1774 9.02148 13.3291 10.0945 12.8578 10.8252H12.8818V9.27254H9.3006C9.34749 10.2773 9.3006 19.9786 9.3006 19.9786Z" fill="#0F0F0F"/>
</g>
<defs>
<clipPath id="clip0_287_596">
<rect width="24" height="24" fill="white"/>
</clipPath>
</defs>
</svg>
