<svg width="76" height="55" viewBox="0 0 76 55" fill="none" xmlns="http://www.w3.org/2000/svg">
<path d="M10.5189 54.5V43.3351H20.4535C22.9371 43.3351 25.1772 42.9703 27.1739 42.2405C29.1705 41.4622 30.875 40.3919 32.2873 39.0297C33.6995 37.6189 34.7709 35.9405 35.5014 33.9946C36.2318 32 36.5971 29.8108 36.5971 27.427C36.5971 24.9459 36.2318 22.7324 35.5014 20.7865C34.7709 18.8405 33.6995 17.1865 32.2873 15.8243C30.875 14.4622 29.1705 13.4405 27.1739 12.7595C25.1772 12.0297 22.9371 11.6649 20.4535 11.6649H10.5189V0.5H19.796C24.6172 0.5 28.8296 1.20541 32.4333 2.61622C36.0371 4.02703 39.0564 5.94865 41.4913 8.38108C43.9262 10.8135 45.7281 13.6108 46.8969 16.773C48.1143 19.8865 48.7231 23.1703 48.7231 26.6243V28.2297C48.7231 31.4405 48.1143 34.627 46.8969 37.7892C45.7281 40.9027 43.9262 43.7243 41.4913 46.2541C39.0564 48.7351 36.0371 50.7297 32.4333 52.2378C28.8296 53.7459 24.6172 54.5 19.796 54.5H10.5189ZM0 54.5V0.5H11.9799V54.5H0Z" fill="#666666"/>
<path d="M24 54.2703L42.189 25.8838L42.3351 27.1243L25.534 1H38.6827L49.0555 17.6378H50.7356L60.9623 1H73.7457L56.8716 27.2703L56.6525 26.1027L75.4258 54.2703H62.2041L50.0782 35.4432H48.325L36.7834 54.2703H24Z" fill="white"/>
</svg>
