<svg width="28" height="28" viewBox="0 0 28 28" fill="none" xmlns="http://www.w3.org/2000/svg">
<path d="M22.1666 12.8332H15.1666V5.83317C15.1666 5.52375 15.0437 5.22701 14.8249 5.00821C14.6061 4.78942 14.3094 4.6665 14 4.6665C13.6905 4.6665 13.3938 4.78942 13.175 5.00821C12.9562 5.22701 12.8333 5.52375 12.8333 5.83317V12.8332H5.83329C5.52387 12.8332 5.22713 12.9561 5.00833 13.1749C4.78954 13.3937 4.66663 13.6904 4.66663 13.9998C4.66663 14.3093 4.78954 14.606 5.00833 14.8248C5.22713 15.0436 5.52387 15.1665 5.83329 15.1665H12.8333V22.1665C12.8333 22.4759 12.9562 22.7727 13.175 22.9915C13.3938 23.2103 13.6905 23.3332 14 23.3332C14.3094 23.3332 14.6061 23.2103 14.8249 22.9915C15.0437 22.7727 15.1666 22.4759 15.1666 22.1665V15.1665H22.1666C22.476 15.1665 22.7728 15.0436 22.9916 14.8248C23.2104 14.606 23.3333 14.3093 23.3333 13.9998C23.3333 13.6904 23.2104 13.3937 22.9916 13.1749C22.7728 12.9561 22.476 12.8332 22.1666 12.8332Z" fill="white"/>
</svg>
