<svg width="434" height="60" viewBox="0 0 434 60" fill="none" xmlns="http://www.w3.org/2000/svg">
<rect x="0.5" y="0.5" width="433" height="59" rx="29.5" fill="#1A1A1A"/>
<rect x="0.5" y="0.5" width="433" height="59" rx="29.5" stroke="#262626"/>
<path d="M45.71 38.2899L42 34.6099C43.4401 32.8143 44.1375 30.5352 43.9488 28.2412C43.7601 25.9472 42.6997 23.8127 40.9855 22.2765C39.2714 20.7404 37.0338 19.9194 34.7329 19.9824C32.4321 20.0453 30.2427 20.9875 28.6152 22.615C26.9876 24.2426 26.0455 26.4319 25.9825 28.7328C25.9195 31.0337 26.7405 33.2713 28.2767 34.9854C29.8128 36.6996 31.9473 37.76 34.2413 37.9487C36.5353 38.1374 38.8144 37.44 40.61 35.9999L44.29 39.6799C44.383 39.7736 44.4936 39.848 44.6154 39.8988C44.7373 39.9496 44.868 39.9757 45 39.9757C45.132 39.9757 45.2627 39.9496 45.3846 39.8988C45.5065 39.848 45.6171 39.7736 45.71 39.6799C45.8903 39.4934 45.991 39.2442 45.991 38.9849C45.991 38.7256 45.8903 38.4764 45.71 38.2899ZM35 35.9999C33.6156 35.9999 32.2622 35.5894 31.111 34.8202C29.9599 34.051 29.0627 32.9578 28.5329 31.6787C28.0031 30.3996 27.8644 28.9921 28.1345 27.6343C28.4046 26.2764 29.0713 25.0291 30.0503 24.0502C31.0292 23.0712 32.2765 22.4045 33.6344 22.1344C34.9923 21.8643 36.3997 22.0029 37.6788 22.5327C38.9579 23.0626 40.0511 23.9598 40.8203 25.1109C41.5895 26.2621 42 27.6154 42 28.9999C42 30.8564 41.2625 32.6369 39.9498 33.9497C38.637 35.2624 36.8565 35.9999 35 35.9999Z" fill="white"/>
<path d="M64.174 36.824C63.082 36.824 62.152 36.644 61.384 36.284C60.616 35.924 60.028 35.426 59.62 34.79C59.212 34.154 59.008 33.434 59.008 32.63H60.772C60.772 33.026 60.874 33.422 61.078 33.818C61.294 34.214 61.648 34.544 62.14 34.808C62.644 35.072 63.322 35.204 64.174 35.204C64.966 35.204 65.614 35.09 66.118 34.862C66.622 34.622 66.994 34.316 67.234 33.944C67.474 33.56 67.594 33.146 67.594 32.702C67.594 32.162 67.36 31.718 66.892 31.37C66.424 31.01 65.74 30.788 64.84 30.704L63.382 30.578C62.218 30.482 61.288 30.122 60.592 29.498C59.896 28.874 59.548 28.052 59.548 27.032C59.548 26.228 59.74 25.526 60.124 24.926C60.52 24.326 61.066 23.858 61.762 23.522C62.458 23.174 63.268 23 64.192 23C65.104 23 65.908 23.168 66.604 23.504C67.3 23.84 67.84 24.314 68.224 24.926C68.62 25.526 68.818 26.246 68.818 27.086H67.054C67.054 26.666 66.952 26.27 66.748 25.898C66.556 25.526 66.25 25.22 65.83 24.98C65.41 24.74 64.864 24.62 64.192 24.62C63.544 24.62 63.004 24.734 62.572 24.962C62.152 25.19 61.834 25.49 61.618 25.862C61.414 26.222 61.312 26.612 61.312 27.032C61.312 27.512 61.498 27.938 61.87 28.31C62.242 28.682 62.794 28.898 63.526 28.958L64.984 29.084C65.884 29.156 66.658 29.348 67.306 29.66C67.966 29.96 68.47 30.368 68.818 30.884C69.178 31.388 69.358 31.994 69.358 32.702C69.358 33.506 69.142 34.22 68.71 34.844C68.278 35.468 67.672 35.954 66.892 36.302C66.112 36.65 65.206 36.824 64.174 36.824ZM76.1522 36.824C75.3122 36.824 74.5862 36.68 73.9742 36.392C73.3622 36.104 72.8642 35.726 72.4802 35.258C72.0962 34.778 71.8082 34.244 71.6162 33.656C71.4362 33.068 71.3462 32.468 71.3462 31.856V31.532C71.3462 30.908 71.4362 30.302 71.6162 29.714C71.8082 29.126 72.0962 28.598 72.4802 28.13C72.8642 27.65 73.3502 27.272 73.9382 26.996C74.5382 26.708 75.2402 26.564 76.0442 26.564C77.0882 26.564 77.9462 26.792 78.6182 27.248C79.3022 27.692 79.8062 28.268 80.1302 28.976C80.4662 29.684 80.6342 30.44 80.6342 31.244V32.018H72.1022V30.722H79.3742L78.9782 31.424C78.9782 30.74 78.8702 30.152 78.6542 29.66C78.4382 29.156 78.1142 28.766 77.6822 28.49C77.2502 28.214 76.7042 28.076 76.0442 28.076C75.3602 28.076 74.7902 28.232 74.3342 28.544C73.8902 28.856 73.5542 29.282 73.3262 29.822C73.1102 30.362 73.0022 30.986 73.0022 31.694C73.0022 32.378 73.1102 32.996 73.3262 33.548C73.5542 34.088 73.9022 34.52 74.3702 34.844C74.8382 35.156 75.4322 35.312 76.1522 35.312C76.9082 35.312 77.5202 35.144 77.9882 34.808C78.4682 34.472 78.7562 34.082 78.8522 33.638H80.4722C80.3402 34.298 80.0762 34.868 79.6802 35.348C79.2842 35.828 78.7862 36.194 78.1862 36.446C77.5862 36.698 76.9082 36.824 76.1522 36.824ZM88.9016 36.5V33.62H88.6136V30.29C88.6136 29.63 88.4396 29.132 88.0916 28.796C87.7556 28.46 87.2576 28.292 86.5976 28.292C86.2256 28.292 85.8416 28.298 85.4456 28.31C85.0496 28.322 84.6716 28.334 84.3116 28.346C83.9516 28.358 83.6396 28.376 83.3756 28.4V26.888C83.6396 26.864 83.9156 26.846 84.2036 26.834C84.5036 26.81 84.8096 26.798 85.1216 26.798C85.4336 26.786 85.7336 26.78 86.0216 26.78C87.0056 26.78 87.8096 26.9 88.4336 27.14C89.0576 27.368 89.5196 27.746 89.8196 28.274C90.1196 28.802 90.2696 29.516 90.2696 30.416V36.5H88.9016ZM85.7516 36.752C85.0316 36.752 84.4076 36.632 83.8796 36.392C83.3636 36.14 82.9616 35.78 82.6736 35.312C82.3976 34.844 82.2596 34.28 82.2596 33.62C82.2596 32.936 82.4096 32.366 82.7096 31.91C83.0216 31.454 83.4716 31.112 84.0596 30.884C84.6476 30.644 85.3556 30.524 86.1836 30.524H88.7936V31.82H86.1116C85.4156 31.82 84.8816 31.988 84.5096 32.324C84.1376 32.66 83.9516 33.092 83.9516 33.62C83.9516 34.148 84.1376 34.574 84.5096 34.898C84.8816 35.222 85.4156 35.384 86.1116 35.384C86.5196 35.384 86.9096 35.312 87.2816 35.168C87.6536 35.012 87.9596 34.76 88.1996 34.412C88.4516 34.052 88.5896 33.56 88.6136 32.936L89.0816 33.62C89.0216 34.304 88.8536 34.88 88.5776 35.348C88.3136 35.804 87.9416 36.152 87.4616 36.392C86.9936 36.632 86.4236 36.752 85.7516 36.752ZM93.4412 36.5V26.888H94.8092V30.848H94.7372C94.7372 29.444 95.0432 28.418 95.6552 27.77C96.2792 27.11 97.2092 26.78 98.4452 26.78H98.7692V28.328H98.1572C97.1972 28.328 96.4592 28.586 95.9432 29.102C95.4272 29.606 95.1692 30.338 95.1692 31.298V36.5H93.4412ZM104.841 36.824C104.013 36.824 103.293 36.68 102.681 36.392C102.081 36.104 101.583 35.72 101.187 35.24C100.791 34.748 100.491 34.208 100.287 33.62C100.095 33.032 99.9985 32.444 99.9985 31.856V31.532C99.9985 30.92 100.095 30.32 100.287 29.732C100.491 29.144 100.791 28.616 101.187 28.148C101.595 27.668 102.099 27.284 102.699 26.996C103.299 26.708 104.001 26.564 104.805 26.564C105.609 26.564 106.329 26.714 106.965 27.014C107.613 27.314 108.129 27.74 108.513 28.292C108.909 28.832 109.131 29.474 109.179 30.218H107.523C107.439 29.618 107.163 29.12 106.695 28.724C106.227 28.316 105.597 28.112 104.805 28.112C104.121 28.112 103.551 28.268 103.095 28.58C102.639 28.892 102.297 29.318 102.069 29.858C101.841 30.398 101.727 31.01 101.727 31.694C101.727 32.354 101.841 32.96 102.069 33.512C102.297 34.052 102.639 34.484 103.095 34.808C103.563 35.12 104.145 35.276 104.841 35.276C105.381 35.276 105.849 35.18 106.245 34.988C106.641 34.796 106.959 34.538 107.199 34.214C107.439 33.89 107.583 33.524 107.631 33.116H109.287C109.251 33.872 109.029 34.526 108.621 35.078C108.225 35.63 107.697 36.062 107.037 36.374C106.389 36.674 105.657 36.824 104.841 36.824ZM111.635 36.5V23.36H113.363V31.208H112.931C112.931 30.26 113.051 29.444 113.291 28.76C113.543 28.064 113.927 27.53 114.443 27.158C114.959 26.786 115.619 26.6 116.423 26.6H116.495C117.647 26.6 118.517 26.984 119.105 27.752C119.693 28.508 119.987 29.594 119.987 31.01V36.5H118.259V30.65C118.259 29.87 118.037 29.264 117.593 28.832C117.161 28.4 116.597 28.184 115.901 28.184C115.133 28.184 114.515 28.442 114.047 28.958C113.591 29.462 113.363 30.128 113.363 30.956V36.5H111.635Z" fill="#666666"/>
</svg>
