<svg width="30" height="31" viewBox="0 0 30 31" fill="none" xmlns="http://www.w3.org/2000/svg">
<path d="M24.9406 10.4009C24.9558 10.6213 24.9558 10.8417 24.9558 11.0641C24.9558 17.8415 19.7964 25.6578 10.3621 25.6578V25.6538C7.57516 25.6578 4.84613 24.8596 2.5 23.3544C2.90524 23.4031 3.31251 23.4275 3.7208 23.4285C6.03037 23.4305 8.27392 22.6556 10.0909 21.2286C7.8961 21.187 5.97146 19.756 5.29911 17.6668C6.06795 17.8151 6.86015 17.7846 7.61477 17.5784C5.22192 17.095 3.50041 14.9926 3.50041 12.551C3.50041 12.5287 3.50041 12.5073 3.50041 12.486C4.21339 12.8831 5.01168 13.1035 5.82826 13.1279C3.57455 11.6217 2.87985 8.62352 4.24081 6.27942C6.84491 9.48377 10.6871 11.4318 14.8116 11.6379C14.3982 9.85651 14.9629 7.98976 16.2955 6.73748C18.3613 4.79557 21.6103 4.8951 23.5522 6.9599C24.7009 6.73341 25.8018 6.31192 26.8094 5.71473C26.4265 6.90201 25.6251 7.91054 24.5546 8.55141C25.5713 8.43156 26.5646 8.15937 27.5 7.74398C26.8114 8.77587 25.944 9.67471 24.9406 10.4009Z" fill="white"/>
</svg>
